Coordinates
version=1
nRows=11
nColumns=40
inDegrees=yes

Units are S.I. units (second, meters, Newtons, ...)
Angles are in degrees.

endheader
time	pelvis_tilt	pelvis_list	pelvis_rotation	pelvis_tx	pelvis_ty	pelvis_tz	hip_flexion_r	hip_adduction_r	hip_rotation_r	knee_angle_r	knee_angle_r_beta	ankle_angle_r	subtalar_angle_r	mtp_angle_r	hip_flexion_l	hip_adduction_l	hip_rotation_l	knee_angle_l	knee_angle_l_beta	ankle_angle_l	subtalar_angle_l	mtp_angle_l	lumbar_extension	lumbar_bending	lumbar_rotation	arm_flex_r	arm_add_r	arm_rot_r	elbow_flex_r	pro_sup_r	wrist_flex_r	wrist_dev_r	arm_flex_l	arm_add_l	arm_rot_l	elbow_flex_l	pro_sup_l	wrist_flex_l	wrist_dev_l
     48.34214286	     -4.32260285	     -3.13868828	     -2.17647523	      0.97298181	      0.92606054	      0.42229596	     26.18104601	     -0.29830583	    -14.31595380	     12.87267658	     12.87267658	      0.86905185	      1.93977018	      7.04996366	      0.55466315	     -2.93566095	    -13.47621299	     12.66388218	     12.66388218	     17.31969163	     -6.73039662	     -3.25674753	     -9.03063573	      6.29527888	      2.31900594	    -18.46350052	    -11.81703175	    -14.76259233	     20.96703774	     47.34252128	      0.00000000	      0.00000000	     28.11280749	    -16.56213183	     -6.00112356	     72.54016486	     47.45239200	      0.00000000	      0.00000000
     48.35428571	     -4.46593747	     -3.23604033	     -2.11044796	      0.97472530	      0.92496149	      0.42453026	     25.69286652	      0.03680161	    -14.57044707	     13.15603488	     13.15603488	      1.06139730	      1.68650389	      6.81794878	      0.13617858	     -3.20389811	    -13.37225819	     12.77550485	     12.77550485	     17.61011159	     -6.79590944	     -3.26572473	     -8.69091678	      6.31110414	      2.43626497	    -17.99501713	    -11.62971313	    -14.72652128	     21.09857433	     47.33674810	      0.00000000	      0.00000000	     27.89316299	    -16.32060236	     -5.91291734	     72.50268018	     47.44530936	      0.00000000	      0.00000000
     48.36642857	     -4.44507183	     -3.36155215	     -2.03908469	      0.97654370	      0.92393496	      0.42698021	     25.27050254	      0.33242495	    -14.64941487	     14.05678928	     14.05678928	      1.17876401	      0.98807975	      5.45321878	     -0.21271754	     -3.60765015	    -13.32287881	     13.42231438	     13.42231438	     18.22753274	     -6.66221513	     -2.89077465	     -8.58152333	      6.31076222	      2.41905752	    -17.32501427	    -11.62847816	    -14.68738713	     21.04315148	     47.34117909	      0.00000000	      0.00000000	     27.62163404	    -16.30594993	     -5.85041239	     72.47041903	     47.44487373	      0.00000000	      0.00000000
     48.37857143	     -4.66196740	     -3.35015362	     -1.89983275	      0.97843270	      0.92278938	      0.42933132	     24.82635321	      0.55502170	    -14.48609414	     14.36784445	     14.36784445	      0.31680225	     -0.07695071	      1.74209813	     -0.17440291	     -3.97259799	    -13.72817863	     14.37168477	     14.37168477	     19.47479655	     -5.67879968	     -1.29968836	     -8.08549191	      6.24681749	      2.16708233	    -16.10076961	    -11.43099673	    -14.58766117	     20.50723286	     47.36511590	      0.00000000	      0.00000000	     26.82482854	    -16.29509995	     -5.68145732	     72.46902223	     47.44785628	      0.00000000	      0.00000000
     48.39071429	     -4.59705938	     -3.42397408	     -1.82535326	      0.98038668	      0.92231490	      0.43184997	     24.23333131	      0.78591234	    -14.48979396	     15.05199903	     15.05199903	      0.59660937	     -0.51307410	      0.81913528	     -0.52080415	     -4.33076374	    -13.66447093	     15.08147060	     15.08147060	     19.75973188	     -5.79912084	     -1.08498210	     -8.00080439	      6.24538247	      2.27111777	    -15.14179318	    -11.26439300	    -14.55501150	     20.69263478	     47.36227012	      0.00000000	      0.00000000	     26.33687671	    -16.02302369	     -5.56509187	     72.19521083	     47.43739866	      0.00000000	      0.00000000
     48.40285714	     -4.64290453	     -3.47812701	     -1.68343021	      0.98225820	      0.92189009	      0.43435049	     23.80191214	      0.97702853	    -14.31873727	     15.72723541	     15.72723541	      0.97328407	     -1.04356516	     -0.11679041	     -0.52403397	     -4.75203969	    -13.56252618	     16.18273778	     16.18273778	     20.01053908	     -5.93652727	     -0.99707072	     -7.78926677	      6.24591378	      2.26335025	    -14.02430035	    -11.13238867	    -14.52817262	     20.91466308	     47.36020022	      0.00000000	      0.00000000	     25.67032268	    -15.77905560	     -5.41362462	     71.67380366	     47.41852815	      0.00000000	      0.00000000
     48.41500000	     -4.73966253	     -3.51722638	     -1.55084401	      0.98401710	      0.92165468	      0.43694806	     23.42432192	      1.17927998	    -14.08015886	     16.24753325	     16.24753325	      1.23281944	     -1.73939177	     -1.23492607	     -0.24554590	     -5.24012492	    -13.52352832	     17.70130654	     17.70130654	     20.22378754	     -6.10391864	     -0.94257582	     -7.48328213	      6.19850306	      2.19199623	    -12.70720908	    -11.03159994	    -14.51052857	     21.03992648	     47.36510861	      0.00000000	      0.00000000	     24.87421601	    -15.51594866	     -5.27859625	     70.83600226	     47.39718339	      0.00000000	      0.00000000
     48.42714286	     -4.70613847	     -3.57915274	     -1.37439923	      0.98560158	      0.92197447	      0.43945952	     22.92689869	      1.35875835	    -13.93734310	     16.70689591	     16.70689591	      1.65404979	     -2.17343662	     -1.91592925	      0.11612471	     -5.78338813	    -13.31827393	     19.55828278	     19.55828278	     20.00764540	     -6.64345539	     -1.13232364	     -7.43476809	      6.26915281	      2.18811847	    -11.30094988	    -10.90739564	    -14.48847891	     21.33649697	     47.36252320	      0.00000000	      0.00000000	     24.11500473	    -15.19294942	     -5.12630733	     69.95985879	     47.37144022	      0.00000000	      0.00000000
     48.43928571	     -4.70978532	     -3.65114862	     -1.23094500	      0.98707994	      0.92244870	      0.44212537	     22.44347629	      1.58748143	    -13.69377848	     17.00826555	     17.00826555	      2.16717146	     -2.54981028	     -2.47871500	      0.70426507	     -6.36774120	    -12.90563784	     21.73768817	     21.73768817	     19.62232386	     -7.40186963	     -1.62770388	     -7.32590051	      6.24590148	      2.16748326	     -9.75391672	    -10.81888177	    -14.46979970	     21.66637401	     47.35938401	      0.00000000	      0.00000000	     23.29029916	    -14.82760580	     -4.98572578	     68.77625788	     47.34120171	      0.00000000	      0.00000000
     48.45142857	     -4.63789178	     -3.74748332	     -1.03517804	      0.98838025	      0.92326959	      0.44469538	     21.84723042	      1.81768181	    -13.61457571	     17.18281416	     17.18281416	      2.70371913	     -2.78102994	     -2.81643852	      1.49023931	     -7.01665361	    -12.39484366	     24.34906282	     24.34906282	     18.89849044	     -8.44367236	     -2.22337993	     -7.35162820	      6.29044918	      2.17743445	     -8.13922008	    -10.75015311	    -14.44026936	     22.13376068	     47.34963276	      0.00000000	      0.00000000	     22.44200109	    -14.41551290	     -4.80566015	     67.57826965	     47.30594776	      0.00000000	      0.00000000
     48.46357143	     -4.52638843	     -3.84557935	     -0.83546322	      0.98949824	      0.92426497	      0.44724472	     21.17889495	      2.05155790	    -13.58969893	     17.23716661	     17.23716661	      3.23589449	     -2.92088691	     -3.04644596	      2.47448004	     -7.69231249	    -11.79125247	     27.33751960	     27.33751960	     17.90803686	     -9.68294352	     -2.86015016	     -7.47397401	      6.33533111	      2.21577410	     -6.39930188	    -10.72057568	    -14.39868656	     22.70774855	     47.33512661	      0.00000000	      0.00000000	     21.58655205	    -14.00770318	     -4.61310653	     66.28566936	     47.26738702	      0.00000000	      0.00000000
